<?xml version="1.0" encoding="UTF-8"?>
<svg version="1.1" xmlns="http://www.w3.org/2000/svg" width="32" height="32">
<path d="M0 0 C10.56 0 21.12 0 32 0 C32 10.56 32 21.12 32 32 C21.44 32 10.88 32 0 32 C0 21.44 0 10.88 0 0 Z " fill="#111111" transform="translate(0,0)"/>
<path d="M0 0 C10.56 0 21.12 0 32 0 C32 6.27 32 12.54 32 19 C30.02 18.67 28.04 18.34 26 18 C23.72349255 18.3577614 23.72349255 18.3577614 22 19 C21.96261719 18.22914062 21.92523437 17.45828125 21.88671875 16.6640625 C21.82097656 15.66117188 21.75523438 14.65828125 21.6875 13.625 C21.62949219 12.62726562 21.57148438 11.62953125 21.51171875 10.6015625 C21.34285156 9.74304687 21.17398437 8.88453125 21 8 C18.23851844 5.68859704 18.23851844 5.68859704 15.4375 6.3125 C13.01885389 6.91239838 13.01885389 6.91239838 11 8 C10.5316735 10.58605332 10.5316735 10.58605332 10.375 13.5625 C10.30023438 14.57441406 10.22546875 15.58632812 10.1484375 16.62890625 C10.09945313 17.41136719 10.05046875 18.19382812 10 19 C9.0925 18.814375 8.185 18.62875 7.25 18.4375 C3.8491925 17.77576292 3.8491925 17.77576292 0 19 C0 12.73 0 6.46 0 0 Z " fill="#010101" transform="translate(0,0)"/>
<path d="M0 0 C0.08069658 2.95887459 0.14034665 5.9155659 0.1875 8.875 C0.22520508 10.13763672 0.22520508 10.13763672 0.26367188 11.42578125 C0.27817383 12.63427734 0.27817383 12.63427734 0.29296875 13.8671875 C0.31653442 14.98262939 0.31653442 14.98262939 0.34057617 16.12060547 C0.22818604 16.74080566 0.1157959 17.36100586 0 18 C-3 20 -3 20 -4.75 19.875 C-8.05143198 18.59110979 -10.95762549 16.81372326 -14 15 C-13.67 14.01 -13.34 13.02 -13 12 C-11.1875 11.1875 -11.1875 11.1875 -9 11 C-7.64700127 11.62579283 -6.31005153 12.28867223 -5 13 C-5.03480469 12.22914062 -5.06960938 11.45828125 -5.10546875 10.6640625 C-5.13253906 9.66117188 -5.15960938 8.65828125 -5.1875 7.625 C-5.22230469 6.62726562 -5.25710938 5.62953125 -5.29296875 4.6015625 C-5.14794922 3.31378906 -5.14794922 3.31378906 -5 2 C-2 0 -2 0 0 0 Z " fill="#EAEAEA" transform="translate(15,6)"/>
<path d="M0 0 C2.475 0.99 2.475 0.99 5 2 C5 5.63 5 9.26 5 13 C5.928125 12.62875 6.85625 12.2575 7.8125 11.875 C9.3903125 11.441875 9.3903125 11.441875 11 11 C11.99 11.66 12.98 12.32 14 13 C14 13.66 14 14.32 14 15 C12.390625 16.32421875 12.390625 16.32421875 10.25 17.6875 C9.55390625 18.14511719 8.8578125 18.60273438 8.140625 19.07421875 C5.57222054 20.18500681 4.57289603 19.97834912 2 19 C1.34 18.67 0.68 18.34 0 18 C0 12.06 0 6.12 0 0 Z " fill="#EDEDED" transform="translate(17,6)"/>
</svg>
